<?xml version="1.0" encoding="UTF-8"?>
<!DOCTYPE svg PUBLIC "-//W3C//DTD SVG 1.1//EN" "http://www.w3.org/Graphics/SVG/1.1/DTD/svg11.dtd">
<svg xmlns="http://www.w3.org/2000/svg" version="1.1" width="569px" height="439px" style="shape-rendering:geometricPrecision; text-rendering:geometricPrecision; image-rendering:optimizeQuality; fill-rule:evenodd; clip-rule:evenodd" xmlns:xlink="http://www.w3.org/1999/xlink">
<g><path style="opacity:0.178" fill="#cc3d3e" d="M 315.5,32.5 C 315.672,33.4916 315.338,34.1583 314.5,34.5C 312.797,33.3398 312.131,34.0065 312.5,36.5C 311.662,36.8417 311.328,37.5084 311.5,38.5C 310.215,35.4115 309.549,32.0781 309.5,28.5C 312.522,28.3419 314.522,29.6752 315.5,32.5 Z"/></g>
<g><path style="opacity:1" fill="#c93031" d="M 314.5,34.5 C 319.161,42.0956 321.161,50.429 320.5,59.5C 320.818,69.4117 318.651,78.745 314,87.5C 302.304,107.531 286.804,124.031 267.5,137C 260.302,143.864 253.468,151.03 247,158.5C 245.264,162.971 243.264,167.304 241,171.5C 239.05,179.494 239.05,187.494 241,195.5C 247.096,209.384 254.93,222.05 264.5,233.5C 265.514,235.574 266.514,237.574 267.5,239.5C 269.138,240.705 269.471,242.038 268.5,243.5C 265.874,241.177 263.207,238.843 260.5,236.5C 259.167,234.5 257.5,232.833 255.5,231.5C 250.088,225.718 244.588,220.052 239,214.5C 230.882,204.763 224.716,193.93 220.5,182C 219.21,176.819 219.21,171.653 220.5,166.5C 222.62,160.262 225.786,154.595 230,149.5C 246.811,133.029 264.645,117.862 283.5,104C 293.708,95.3862 301.875,85.2196 308,73.5C 313.405,61.5841 314.905,49.2507 312.5,36.5C 312.131,34.0065 312.797,33.3398 314.5,34.5 Z"/></g>
<g><path style="opacity:0.203" fill="#ca3536" d="M 315.5,32.5 C 320.984,40.6919 323.651,49.8586 323.5,60C 321.952,75.9733 316.452,90.4733 307,103.5C 296.411,117.074 283.911,128.741 269.5,138.5C 264.167,143.833 258.833,149.167 253.5,154.5C 247.296,162.906 243.296,172.24 241.5,182.5C 242.008,187.236 242.841,191.903 244,196.5C 245.757,199.684 247.257,203.018 248.5,206.5C 253.844,214.529 259.177,222.529 264.5,230.5C 264.5,231.5 264.5,232.5 264.5,233.5C 254.93,222.05 247.096,209.384 241,195.5C 239.05,187.494 239.05,179.494 241,171.5C 243.264,167.304 245.264,162.971 247,158.5C 253.468,151.03 260.302,143.864 267.5,137C 286.804,124.031 302.304,107.531 314,87.5C 318.651,78.745 320.818,69.4117 320.5,59.5C 321.161,50.429 319.161,42.0956 314.5,34.5C 315.338,34.1583 315.672,33.4916 315.5,32.5 Z"/></g>
<g><path style="opacity:0.343" fill="#ce4344" d="M 356.5,115.5 C 355.347,114.687 355.347,113.687 356.5,112.5C 355.311,111.571 353.978,111.238 352.5,111.5C 354.667,110.731 356.834,109.731 359,108.5C 360.892,109.617 361.725,111.284 361.5,113.5C 359.678,113.831 358.011,114.498 356.5,115.5 Z"/></g>
<g><path style="opacity:1" fill="#c93031" d="M 296.5,167.5 C 296.18,172.64 296.847,177.64 298.5,182.5C 303.414,190.912 308.914,198.912 315,206.5C 318.21,213.279 319.044,220.279 317.5,227.5C 314.1,233.291 310.433,238.958 306.5,244.5C 303.141,247.529 299.808,250.529 296.5,253.5C 294.858,254.867 293.192,255.201 291.5,254.5C 292.456,252.925 293.123,251.258 293.5,249.5C 294.167,248.167 294.833,246.833 295.5,245.5C 296.338,245.158 296.672,244.492 296.5,243.5C 297.647,239.354 297.814,235.02 297,230.5C 296.617,229.944 296.117,229.611 295.5,229.5C 293.119,222.934 289.285,217.267 284,212.5C 279.873,205.912 276.54,198.912 274,191.5C 272.818,185.424 272.318,179.424 272.5,173.5C 278.168,157.652 288.168,145.152 302.5,136C 319.188,125.812 336.522,118.479 354.5,114C 337.709,123.468 322.042,134.468 307.5,147C 301.618,152.507 297.284,159.007 294.5,166.5C 294.957,167.298 295.624,167.631 296.5,167.5 Z"/></g>
<g><path style="opacity:0.233" fill="#ca3536" d="M 312.5,36.5 C 314.905,49.2507 313.405,61.5841 308,73.5C 301.875,85.2196 293.708,95.3862 283.5,104C 264.645,117.862 246.811,133.029 230,149.5C 225.786,154.595 222.62,160.262 220.5,166.5C 219.21,171.653 219.21,176.819 220.5,182C 224.716,193.93 230.882,204.763 239,214.5C 244.588,220.052 250.088,225.718 255.5,231.5C 254.5,231.5 253.5,231.5 252.5,231.5C 241.045,220.98 231.211,208.98 223,195.5C 215.81,182.097 215.81,168.764 223,155.5C 227.319,149.518 231.986,143.851 237,138.5C 252.74,125.473 268.574,112.64 284.5,100C 289.315,94.3504 294.315,88.8504 299.5,83.5C 309.259,70.1381 313.259,55.1381 311.5,38.5C 311.328,37.5084 311.662,36.8417 312.5,36.5 Z"/></g>
<g><path style="opacity:0.201" fill="#ca3536" d="M 352.5,111.5 C 353.978,111.238 355.311,111.571 356.5,112.5C 355.347,113.687 355.347,114.687 356.5,115.5C 341.734,123.728 327.734,133.228 314.5,144C 306.414,150.389 300.414,158.222 296.5,167.5C 295.624,167.631 294.957,167.298 294.5,166.5C 297.284,159.007 301.618,152.507 307.5,147C 322.042,134.468 337.709,123.468 354.5,114C 336.522,118.479 319.188,125.812 302.5,136C 288.168,145.152 278.168,157.652 272.5,173.5C 272.318,179.424 272.818,185.424 274,191.5C 276.54,198.912 279.873,205.912 284,212.5C 289.285,217.267 293.119,222.934 295.5,229.5C 295.167,229.5 294.833,229.5 294.5,229.5C 290.989,223.802 286.822,218.469 282,213.5C 263.082,184.095 267.582,158.928 295.5,138C 312.978,125.928 331.978,117.095 352.5,111.5 Z"/></g>
<g><path style="opacity:0.131" fill="#c0373c" d="M 264.5,230.5 C 266.047,231.768 267.047,233.435 267.5,235.5C 267.5,236.833 267.5,238.167 267.5,239.5C 266.514,237.574 265.514,235.574 264.5,233.5C 264.5,232.5 264.5,231.5 264.5,230.5 Z"/></g>
<g><path style="opacity:0.133" fill="#c0363c" d="M 252.5,231.5 C 253.5,231.5 254.5,231.5 255.5,231.5C 257.5,232.833 259.167,234.5 260.5,236.5C 259.167,236.167 257.833,235.833 256.5,235.5C 255.473,233.806 254.139,232.473 252.5,231.5 Z"/></g>
<g><path style="opacity:0.441" fill="#c23539" d="M 295.5,229.5 C 296.117,229.611 296.617,229.944 297,230.5C 297.814,235.02 297.647,239.354 296.5,243.5C 296.717,238.77 296.383,234.103 295.5,229.5 Z"/></g>
<g><path style="opacity:0.071" fill="#b93a43" d="M 256.5,235.5 C 257.833,235.833 259.167,236.167 260.5,236.5C 263.207,238.843 265.874,241.177 268.5,243.5C 267.833,243.5 267.167,243.5 266.5,243.5C 262.854,241.183 259.52,238.516 256.5,235.5 Z"/></g>
<g><path style="opacity:0.073" fill="#b93840" d="M 294.5,229.5 C 294.833,229.5 295.167,229.5 295.5,229.5C 296.383,234.103 296.717,238.77 296.5,243.5C 296.672,244.492 296.338,245.158 295.5,245.5C 295.5,244.167 295.5,242.833 295.5,241.5C 295.605,237.452 295.272,233.452 294.5,229.5 Z"/></g>
<g><path style="opacity:0.043" fill="#b8404a" d="M 267.5,235.5 C 269.192,237.205 270.525,239.205 271.5,241.5C 270.842,242.398 270.176,243.398 269.5,244.5C 268.893,244.376 268.56,244.043 268.5,243.5C 269.471,242.038 269.138,240.705 267.5,239.5C 267.5,238.167 267.5,236.833 267.5,235.5 Z"/></g>
<g><path style="opacity:0.134" fill="#c0393f" d="M 317.5,227.5 C 316.598,234.371 313.598,240.037 308.5,244.5C 307.833,244.5 307.167,244.5 306.5,244.5C 310.433,238.958 314.1,233.291 317.5,227.5 Z"/></g>
<g><path style="opacity:0.968" fill="#3073b8" d="M 419.5,271.5 C 419.702,273.95 419.369,276.283 418.5,278.5C 417.849,277.909 417.182,277.243 416.5,276.5C 413.462,287.759 407.129,296.592 397.5,303C 388.729,308.028 379.896,312.861 371,317.5C 370.667,317.167 370.333,316.833 370,316.5C 366.037,318.2 361.87,319.534 357.5,320.5C 357.167,320.333 356.833,320.167 356.5,320C 357.823,319.184 358.489,318.017 358.5,316.5C 358.833,316.5 359.167,316.5 359.5,316.5C 378.078,309.087 392.078,296.587 401.5,279C 400.244,278.583 399.577,277.75 399.5,276.5C 399.643,262.606 392.977,254.106 379.5,251C 373.716,251.027 368.05,251.693 362.5,253C 361.605,249.64 362.939,247.473 366.5,246.5C 372.345,245.608 378.178,244.608 384,243.5C 389.621,245.542 395.288,246.876 401,247.5C 409.912,251.74 414.912,258.74 416,268.5C 416.759,270.063 417.926,271.063 419.5,271.5 Z"/></g>
<g><path style="opacity:0.204" fill="#af4d5b" d="M 271.5,241.5 C 272.11,242.391 272.443,243.391 272.5,244.5C 272.179,246.048 271.179,246.715 269.5,246.5C 267.5,246.5 266.5,245.5 266.5,243.5C 267.167,243.5 267.833,243.5 268.5,243.5C 268.56,244.043 268.893,244.376 269.5,244.5C 270.176,243.398 270.842,242.398 271.5,241.5 Z"/></g>
<g><path style="opacity:0.084" fill="#a55467" d="M 272.5,244.5 C 273.434,245.568 273.768,246.901 273.5,248.5C 271.62,248.771 270.287,248.104 269.5,246.5C 271.179,246.715 272.179,246.048 272.5,244.5 Z"/></g>
<g><path style="opacity:0.051" fill="#b04552" d="M 295.5,241.5 C 295.5,242.833 295.5,244.167 295.5,245.5C 294.833,246.833 294.167,248.167 293.5,249.5C 292.833,249.833 292.167,250.167 291.5,250.5C 292.543,247.291 293.877,244.291 295.5,241.5 Z"/></g>
<g><path style="opacity:0.101" fill="#4571ae" d="M 220.5,246.5 C 223.986,246.295 224.986,247.629 223.5,250.5C 222.292,251.234 220.959,251.567 219.5,251.5C 219.414,250.504 219.748,249.671 220.5,249C 217.518,248.502 214.518,248.335 211.5,248.5C 208.167,248.5 204.833,248.5 201.5,248.5C 207.594,246.906 213.928,246.239 220.5,246.5 Z"/></g>
<g><path style="opacity:0.036" fill="#6173a4" d="M 220.5,246.5 C 223.565,245.182 226.731,245.182 230,246.5C 230.507,247.996 230.007,249.163 228.5,250C 226.866,250.494 225.199,250.66 223.5,250.5C 224.986,247.629 223.986,246.295 220.5,246.5 Z"/></g>
<g><path style="opacity:0.979" fill="#3073b8" d="M 211.5,248.5 C 214.518,248.335 217.518,248.502 220.5,249C 219.748,249.671 219.414,250.504 219.5,251.5C 207.966,254.171 197.299,258.671 187.5,265C 197.296,269.354 207.63,271.187 218.5,270.5C 218.414,271.496 218.748,272.329 219.5,273C 231.872,273.843 244.205,273.51 256.5,272C 255.584,271.722 254.918,271.222 254.5,270.5C 260.167,270.5 265.833,270.5 271.5,270.5C 273.878,272.918 276.545,273.085 279.5,271C 296.532,270.088 313.532,268.755 330.5,267C 334.133,266.851 337.466,266.018 340.5,264.5C 343.728,264.701 346.895,264.367 350,263.5C 350.5,263.667 351,263.833 351.5,264C 350.473,264.513 349.473,265.013 348.5,265.5C 344.72,267.44 341.054,269.607 337.5,272C 321.267,274.933 305.267,277.767 289.5,280.5C 288.014,280.103 286.514,279.77 285,279.5C 281.544,280.406 278.044,281.073 274.5,281.5C 269.758,280.081 265.091,280.248 260.5,282C 261.598,282.77 261.598,283.603 260.5,284.5C 237.088,285.102 213.754,284.268 190.5,282C 179.747,281.394 169.413,279.061 159.5,275C 158.619,274.292 157.953,273.458 157.5,272.5C 158.185,270.586 158.685,268.586 159,266.5C 172.043,257.988 186.209,252.988 201.5,251.5C 204.864,250.165 208.198,249.165 211.5,248.5 Z"/></g>
<g><path style="opacity:0.141" fill="#bc3d45" d="M 306.5,244.5 C 307.167,244.5 307.833,244.5 308.5,244.5C 305.471,247.864 302.137,250.864 298.5,253.5C 297.833,253.5 297.167,253.5 296.5,253.5C 299.808,250.529 303.141,247.529 306.5,244.5 Z"/></g>
<g><path style="opacity:0.212" fill="#b53f49" d="M 293.5,249.5 C 293.123,251.258 292.456,252.925 291.5,254.5C 293.192,255.201 294.858,254.867 296.5,253.5C 297.167,253.5 297.833,253.5 298.5,253.5C 297.292,256.044 295.292,257.378 292.5,257.5C 291.325,257.719 290.325,257.386 289.5,256.5C 290.246,255.264 290.579,253.93 290.5,252.5C 290.328,251.508 290.662,250.842 291.5,250.5C 292.167,250.167 292.833,249.833 293.5,249.5 Z"/></g>
<g><path style="opacity:0.073" fill="#925974" d="M 286.5,256.5 C 286.5,258.167 286.5,259.833 286.5,261.5C 284.149,260.084 284.149,258.417 286.5,256.5 Z"/></g>
<g><path style="opacity:0.027" fill="#a7495a" d="M 290.5,252.5 C 290.579,253.93 290.246,255.264 289.5,256.5C 290.325,257.386 291.325,257.719 292.5,257.5C 292.5,258.167 292.167,258.5 291.5,258.5C 290.5,258.5 289.5,258.5 288.5,258.5C 288.5,257.167 288.5,255.833 288.5,254.5C 289.167,253.833 289.833,253.167 290.5,252.5 Z"/></g>
<g><path style="opacity:0.226" fill="#3979bb" d="M 201.5,248.5 C 204.833,248.5 208.167,248.5 211.5,248.5C 208.198,249.165 204.864,250.165 201.5,251.5C 186.209,252.988 172.043,257.988 159,266.5C 158.685,268.586 158.185,270.586 157.5,272.5C 155.559,270.989 155.059,268.989 156,266.5C 157.5,265 159,263.5 160.5,262C 168.585,258.082 176.918,254.749 185.5,252C 190.897,250.936 196.23,249.769 201.5,248.5 Z"/></g>
<g><path style="opacity:0.073" fill="#9a5269" d="M 288.5,254.5 C 288.5,255.833 288.5,257.167 288.5,258.5C 289.5,258.5 290.5,258.5 291.5,258.5C 290.341,260.25 288.674,261.25 286.5,261.5C 286.5,259.833 286.5,258.167 286.5,256.5C 286.833,255.5 287.5,254.833 288.5,254.5 Z"/></g>
<g><path style="opacity:0.091" fill="#597ab0" d="M 353.5,265.5 C 354.825,262.904 353.825,261.57 350.5,261.5C 352.487,260.657 354.654,259.99 357,259.5C 358.395,259.78 359.562,260.447 360.5,261.5C 358.377,263.31 356.043,264.643 353.5,265.5 Z"/></g>
<g><path style="opacity:0.219" fill="#3576ba" d="M 419.5,271.5 C 417.926,271.063 416.759,270.063 416,268.5C 414.912,258.74 409.912,251.74 401,247.5C 395.288,246.876 389.621,245.542 384,243.5C 378.178,244.608 372.345,245.608 366.5,246.5C 385.078,238.427 401.245,241.76 415,256.5C 417.064,261.31 418.564,266.31 419.5,271.5 Z"/></g>
<g><path style="opacity:0.215" fill="#5171a9" d="M 350.5,261.5 C 353.825,261.57 354.825,262.904 353.5,265.5C 352.791,266.404 351.791,266.737 350.5,266.5C 349.508,266.672 348.842,266.338 348.5,265.5C 349.473,265.013 350.473,264.513 351.5,264C 351,263.833 350.5,263.667 350,263.5C 346.895,264.367 343.728,264.701 340.5,264.5C 339.167,264.5 337.833,264.5 336.5,264.5C 336.611,263.883 336.944,263.383 337.5,263C 341.832,262.417 346.165,261.917 350.5,261.5 Z"/></g>
<g><path style="opacity:0.104" fill="#4e6da6" d="M 336.5,264.5 C 330.395,265.996 324.062,266.663 317.5,266.5C 323.617,265.121 329.95,264.454 336.5,264.5 Z"/></g>
<g><path style="opacity:0.516" fill="#4273b0" d="M 336.5,264.5 C 337.833,264.5 339.167,264.5 340.5,264.5C 337.466,266.018 334.133,266.851 330.5,267C 313.532,268.755 296.532,270.088 279.5,271C 276.545,273.085 273.878,272.918 271.5,270.5C 286.698,268.723 302.031,267.39 317.5,266.5C 324.062,266.663 330.395,265.996 336.5,264.5 Z"/></g>
<g><path style="opacity:0.369" fill="#3e7aba" d="M 218.5,270.5 C 230.5,270.5 242.5,270.5 254.5,270.5C 254.918,271.222 255.584,271.722 256.5,272C 244.205,273.51 231.872,273.843 219.5,273C 218.748,272.329 218.414,271.496 218.5,270.5 Z"/></g>
<g><path style="opacity:0.378" fill="#3874b5" d="M 348.5,265.5 C 348.842,266.338 349.508,266.672 350.5,266.5C 345.704,270.068 340.371,272.901 334.5,275C 310.075,279.943 285.409,283.11 260.5,284.5C 261.598,283.603 261.598,282.77 260.5,282C 265.091,280.248 269.758,280.081 274.5,281.5C 278.044,281.073 281.544,280.406 285,279.5C 286.514,279.77 288.014,280.103 289.5,280.5C 305.267,277.767 321.267,274.933 337.5,272C 341.054,269.607 344.72,267.44 348.5,265.5 Z"/></g>
<g><path style="opacity:0.901" fill="#286eb5" d="M 212.5,281.5 C 227.672,280.174 243.005,280.174 258.5,281.5C 243.13,281.718 227.797,281.718 212.5,281.5 Z"/></g>
<g><path style="opacity:0.974" fill="#3073b8" d="M 228.5,306.5 C 228.5,307.5 228.5,308.5 228.5,309.5C 232.375,309.644 236.208,309.31 240,308.5C 251.455,312.395 262.955,312.395 274.5,308.5C 277.464,309.472 280.464,309.638 283.5,309C 284.252,308.329 284.586,307.496 284.5,306.5C 297.342,305.951 310.009,304.284 322.5,301.5C 324.167,301.667 325.833,301.833 327.5,302C 331.728,306.239 336.728,309.072 342.5,310.5C 342.714,312.144 342.38,313.644 341.5,315C 300.82,326.206 259.486,329.206 217.5,324C 208.317,322.705 199.65,319.872 191.5,315.5C 185.336,310.688 185.003,305.521 190.5,300C 195.816,296.503 201.482,293.67 207.5,291.5C 209.5,291.5 210.5,292.5 210.5,294.5C 208.808,296.205 207.475,298.205 206.5,300.5C 207.167,301.5 207.833,302.5 208.5,303.5C 214.952,305.797 221.619,306.797 228.5,306.5 Z"/></g>
<g><path style="opacity:0.094" fill="#3979bb" d="M 399.5,276.5 C 399.577,277.75 400.244,278.583 401.5,279C 392.078,296.587 378.078,309.087 359.5,316.5C 367.459,310.891 375.459,305.224 383.5,299.5C 390.111,292.571 395.445,284.904 399.5,276.5 Z"/></g>
<g><path style="opacity:0.062" fill="#3a79bb" d="M 228.5,306.5 C 247.171,307.819 265.837,307.819 284.5,306.5C 284.586,307.496 284.252,308.329 283.5,309C 280.464,309.638 277.464,309.472 274.5,308.5C 262.955,312.395 251.455,312.395 240,308.5C 236.208,309.31 232.375,309.644 228.5,309.5C 228.5,308.5 228.5,307.5 228.5,306.5 Z"/></g>
<g><path style="opacity:0.284" fill="#3577ba" d="M 418.5,278.5 C 415.1,289.799 408.434,298.632 398.5,305C 384.463,314.178 369.129,320.345 352.5,323.5C 352.955,319.918 354.955,317.585 358.5,316.5C 358.489,318.017 357.823,319.184 356.5,320C 356.833,320.167 357.167,320.333 357.5,320.5C 361.87,319.534 366.037,318.2 370,316.5C 370.333,316.833 370.667,317.167 371,317.5C 379.896,312.861 388.729,308.028 397.5,303C 407.129,296.592 413.462,287.759 416.5,276.5C 417.182,277.243 417.849,277.909 418.5,278.5 Z"/></g>
<g><path style="opacity:0.988" fill="#3073b8" d="M 231.5,346.5 C 239.175,346.68 246.842,347.014 254.5,347.5C 255.598,348.397 255.598,349.23 254.5,350C 259.5,350.667 264.5,350.667 269.5,350C 270.381,349.292 271.047,348.458 271.5,347.5C 280.839,346.907 290.172,346.24 299.5,345.5C 299.369,346.376 299.702,347.043 300.5,347.5C 302.583,345.396 304.917,345.062 307.5,346.5C 309.191,344.744 311.191,344.244 313.5,345C 319.738,348.618 326.072,351.951 332.5,355C 325.988,357.799 319.321,360.299 312.5,362.5C 311.833,362.167 311.167,361.833 310.5,361.5C 305.349,363.587 300.016,365.254 294.5,366.5C 292.234,365.443 290.234,365.943 288.5,368C 289.416,368.278 290.082,368.778 290.5,369.5C 273.824,370.783 257.158,370.783 240.5,369.5C 240.918,368.778 241.584,368.278 242.5,368C 240.579,367.64 238.912,366.806 237.5,365.5C 234.386,365.869 231.386,365.869 228.5,365.5C 221.304,363.491 214.304,360.991 207.5,358C 204.96,355.795 202.793,353.295 201,350.5C 200.741,346.855 202.241,344.022 205.5,342C 208.741,339.28 212.408,337.947 216.5,338C 213.727,341.205 214.393,343.705 218.5,345.5C 222.225,346.872 226.058,347.872 230,348.5C 231.03,348.164 231.53,347.497 231.5,346.5 Z"/></g>
<g><path style="opacity:0.628" fill="#3e7cbd" d="M 254.5,347.5 C 260.167,347.5 265.833,347.5 271.5,347.5C 271.047,348.458 270.381,349.292 269.5,350C 264.5,350.667 259.5,350.667 254.5,350C 255.598,349.23 255.598,348.397 254.5,347.5 Z"/></g>
<g><path style="opacity:0.198" fill="#3375b9" d="M 290.5,369.5 C 290.082,368.778 289.416,368.278 288.5,368C 290.234,365.943 292.234,365.443 294.5,366.5C 300.016,365.254 305.349,363.587 310.5,361.5C 311.167,361.833 311.833,362.167 312.5,362.5C 319.321,360.299 325.988,357.799 332.5,355C 326.072,351.951 319.738,348.618 313.5,345C 311.191,344.244 309.191,344.744 307.5,346.5C 304.917,345.062 302.583,345.396 300.5,347.5C 299.702,347.043 299.369,346.376 299.5,345.5C 302.167,344.894 304.834,344.061 307.5,343C 309.5,342.333 311.5,342.333 313.5,343C 320.299,346.809 327.299,350.143 334.5,353C 335.517,354.049 335.684,355.216 335,356.5C 320.709,362.765 305.875,367.098 290.5,369.5 Z"/></g>
<g><path style="opacity:0.189" fill="#3476ba" d="M 231.5,346.5 C 231.53,347.497 231.03,348.164 230,348.5C 226.058,347.872 222.225,346.872 218.5,345.5C 214.393,343.705 213.727,341.205 216.5,338C 212.408,337.947 208.741,339.28 205.5,342C 202.241,344.022 200.741,346.855 201,350.5C 202.793,353.295 204.96,355.795 207.5,358C 214.304,360.991 221.304,363.491 228.5,365.5C 231.386,365.869 234.386,365.869 237.5,365.5C 238.912,366.806 240.579,367.64 242.5,368C 241.584,368.278 240.918,368.778 240.5,369.5C 228.717,367.888 217.383,364.721 206.5,360C 195.147,350.798 196.147,343.131 209.5,337C 213.014,335.438 216.681,334.605 220.5,334.5C 219.781,337.315 218.948,339.982 218,342.5C 222.403,344.519 226.903,345.852 231.5,346.5 Z"/></g>
<g><path style="opacity:0.964" fill="#3073b8" d="M 184.5,363.5 C 185.167,363.5 185.5,363.833 185.5,364.5C 185.489,366.017 184.823,367.184 183.5,368C 184.056,368.383 184.389,368.883 184.5,369.5C 182.833,369.5 181.167,369.5 179.5,369.5C 179.631,368.624 179.298,367.957 178.5,367.5C 168.857,368.827 160.19,372.161 152.5,377.5C 149.631,380.912 150.297,383.579 154.5,385.5C 157.326,386.58 160.159,387.58 163,388.5C 165.089,388.255 167.089,388.255 169,388.5C 170.998,389.829 173.165,390.829 175.5,391.5C 183.84,392.345 192.006,393.678 200,395.5C 202.59,394.539 205.257,393.872 208,393.5C 211.463,394.241 214.796,395.241 218,396.5C 220.484,396.503 222.651,395.837 224.5,394.5C 231.167,394.5 237.833,394.5 244.5,394.5C 244.082,395.222 243.416,395.722 242.5,396C 252.167,396.667 261.833,396.667 271.5,396C 270.944,395.617 270.611,395.117 270.5,394.5C 275.833,394.5 281.167,394.5 286.5,394.5C 286.918,395.222 287.584,395.722 288.5,396C 292.167,396.667 295.833,396.667 299.5,396C 301.146,394.344 303.146,393.511 305.5,393.5C 310.237,394.99 314.903,394.824 319.5,393C 318.944,392.617 318.611,392.117 318.5,391.5C 320.833,391.5 323.167,391.5 325.5,391.5C 326.134,392.947 327.301,393.613 329,393.5C 334.788,393.023 340.455,392.023 346,390.5C 347.366,390.706 348.699,391.04 350,391.5C 351.473,389.954 353.306,388.954 355.5,388.5C 356.894,388.621 358.228,388.954 359.5,389.5C 369.391,387.725 379.058,385.059 388.5,381.5C 390.387,379.96 392.22,378.293 394,376.5C 395.655,374.253 395.988,371.92 395,369.5C 396.77,371.742 398.937,373.408 401.5,374.5C 401.5,375.833 401.5,377.167 401.5,378.5C 400.883,378.389 400.383,378.056 400,377.5C 393.571,384.307 385.738,388.973 376.5,391.5C 371.913,392.98 367.246,394.147 362.5,395C 361.058,395.377 360.058,396.21 359.5,397.5C 358.448,398.53 357.114,399.197 355.5,399.5C 325.79,405.143 295.79,408.143 265.5,408.5C 265.804,407.85 266.137,407.183 266.5,406.5C 259.524,405.336 252.524,405.169 245.5,406C 244.584,406.278 243.918,406.778 243.5,407.5C 211.179,408.064 179.179,405.731 147.5,400.5C 147.918,399.778 148.584,399.278 149.5,399C 147.598,398.801 146.098,397.967 145,396.5C 142.266,396.766 139.599,396.766 137,396.5C 134.459,395.491 131.625,394.157 128.5,392.5C 127.752,390.668 126.752,389.001 125.5,387.5C 127,385.167 128.5,382.833 130,380.5C 142.66,372.471 155.826,367.471 169.5,365.5C 172.359,366.599 175.026,366.099 177.5,364C 179.81,363.503 182.143,363.337 184.5,363.5 Z"/></g>
<g><path style="opacity:0.22" fill="#3b7abc" d="M 185.5,364.5 C 187.167,364.5 188.833,364.5 190.5,364.5C 190.56,368.485 188.56,370.152 184.5,369.5C 184.389,368.883 184.056,368.383 183.5,368C 184.823,367.184 185.489,366.017 185.5,364.5 Z"/></g>
<g><path style="opacity:0.152" fill="#3577ba" d="M 184.5,363.5 C 182.143,363.337 179.81,363.503 177.5,364C 175.026,366.099 172.359,366.599 169.5,365.5C 155.826,367.471 142.66,372.471 130,380.5C 128.5,382.833 127,385.167 125.5,387.5C 126.752,389.001 127.752,390.668 128.5,392.5C 131.625,394.157 134.459,395.491 137,396.5C 139.599,396.766 142.266,396.766 145,396.5C 146.098,397.967 147.598,398.801 149.5,399C 148.584,399.278 147.918,399.778 147.5,400.5C 140.781,398.986 134.114,397.153 127.5,395C 125.705,392.886 124.371,390.552 123.5,388C 124.507,385.483 125.674,382.983 127,380.5C 144.252,367.901 163.419,362.234 184.5,363.5 Z"/></g>
<g><path style="opacity:0.262" fill="#3777ba" d="M 179.5,369.5 C 171.045,370.789 163.045,373.622 155.5,378C 151.565,380.462 151.898,382.462 156.5,384C 177.287,390.255 198.62,393.255 220.5,393C 221.745,393.791 223.078,394.291 224.5,394.5C 222.651,395.837 220.484,396.503 218,396.5C 214.796,395.241 211.463,394.241 208,393.5C 205.257,393.872 202.59,394.539 200,395.5C 192.006,393.678 183.84,392.345 175.5,391.5C 173.165,390.829 170.998,389.829 169,388.5C 167.089,388.255 165.089,388.255 163,388.5C 160.159,387.58 157.326,386.58 154.5,385.5C 150.297,383.579 149.631,380.912 152.5,377.5C 160.19,372.161 168.857,368.827 178.5,367.5C 179.298,367.957 179.631,368.624 179.5,369.5 Z"/></g>
<g><path style="opacity:0.254" fill="#3777ba" d="M 401.5,378.5 C 400.062,381.242 398.062,383.576 395.5,385.5C 384.054,391.315 372.054,395.315 359.5,397.5C 360.058,396.21 361.058,395.377 362.5,395C 367.246,394.147 371.913,392.98 376.5,391.5C 385.738,388.973 393.571,384.307 400,377.5C 400.383,378.056 400.883,378.389 401.5,378.5 Z"/></g>
<g><path style="opacity:0.194" fill="#3a79bb" d="M 401.5,374.5 C 398.937,373.408 396.77,371.742 395,369.5C 395.988,371.92 395.655,374.253 394,376.5C 392.22,378.293 390.387,379.96 388.5,381.5C 379.058,385.059 369.391,387.725 359.5,389.5C 358.228,388.954 356.894,388.621 355.5,388.5C 353.306,388.954 351.473,389.954 350,391.5C 348.699,391.04 347.366,390.706 346,390.5C 340.455,392.023 334.788,393.023 329,393.5C 327.301,393.613 326.134,392.947 325.5,391.5C 340.661,390.39 355.661,388.223 370.5,385C 375.771,383.345 381.105,381.678 386.5,380C 388.624,378.878 390.457,377.378 392,375.5C 391.855,372.486 391.355,369.486 390.5,366.5C 396.152,366.491 399.819,369.157 401.5,374.5 Z"/></g>
<g><path style="opacity:0.024" fill="#3a7abc" d="M 318.5,391.5 C 318.611,392.117 318.944,392.617 319.5,393C 314.903,394.824 310.237,394.99 305.5,393.5C 303.146,393.511 301.146,394.344 299.5,396C 295.833,396.667 292.167,396.667 288.5,396C 287.584,395.722 286.918,395.222 286.5,394.5C 297.034,392.733 307.7,391.733 318.5,391.5 Z"/></g>
<g><path style="opacity:0.977" fill="#2f72b8" d="M 394.5,411.5 C 393.584,411.018 392.584,410.685 391.5,410.5C 385.998,412.959 380.332,414.959 374.5,416.5C 373.914,416.291 373.414,415.957 373,415.5C 371.991,416.658 370.658,417.325 369,417.5C 348.811,421.152 328.311,423.652 307.5,425C 309.708,425.191 311.708,425.691 313.5,426.5C 308.5,426.5 303.5,426.5 298.5,426.5C 298.082,425.778 297.416,425.278 296.5,425C 292.5,424.833 288.5,424.667 284.5,424.5C 275.979,425.297 267.479,425.297 259,424.5C 257.167,424.667 255.333,424.833 253.5,425C 252.944,425.383 252.611,425.883 252.5,426.5C 241.486,426.543 230.486,426.209 219.5,425.5C 219.918,424.778 220.584,424.278 221.5,424C 211.763,422.741 202.096,421.075 192.5,419C 188.622,417.935 188.622,417.101 192.5,416.5C 205.707,417.717 219.04,418.717 232.5,419.5C 250.876,417.937 269.209,418.27 287.5,420.5C 290.841,420.164 293.508,418.83 295.5,416.5C 303.154,415.93 310.821,415.596 318.5,415.5C 319.156,416.278 319.989,416.944 321,417.5C 324.776,415.771 328.609,415.438 332.5,416.5C 335.263,414.319 338.263,413.985 341.5,415.5C 345.713,413.984 350.046,412.65 354.5,411.5C 355.167,411.833 355.833,412.167 356.5,412.5C 364.317,409.969 372.317,408.136 380.5,407C 392.272,403.065 403.605,398.232 414.5,392.5C 414.833,392.833 415.167,393.167 415.5,393.5C 412.313,401.23 406.813,405.563 399,406.5C 397.287,408.076 395.787,409.743 394.5,411.5 Z"/></g>
<g><path style="opacity:0.251" fill="#3878bb" d="M 244.5,394.5 C 253.167,394.5 261.833,394.5 270.5,394.5C 270.611,395.117 270.944,395.617 271.5,396C 261.833,396.667 252.167,396.667 242.5,396C 243.416,395.722 244.082,395.222 244.5,394.5 Z"/></g>
<g><path style="opacity:0.885" fill="#3c7bbc" d="M 265.5,408.5 C 257.955,410.068 250.621,409.735 243.5,407.5C 243.918,406.778 244.584,406.278 245.5,406C 252.524,405.169 259.524,405.336 266.5,406.5C 266.137,407.183 265.804,407.85 265.5,408.5 Z"/></g>
<g><path style="opacity:0.36" fill="#3979bb" d="M 394.5,411.5 C 395.787,409.743 397.287,408.076 399,406.5C 406.813,405.563 412.313,401.23 415.5,393.5C 415.167,393.167 414.833,392.833 414.5,392.5C 403.605,398.232 392.272,403.065 380.5,407C 372.317,408.136 364.317,409.969 356.5,412.5C 355.833,412.167 355.167,411.833 354.5,411.5C 350.046,412.65 345.713,413.984 341.5,415.5C 338.263,413.985 335.263,414.319 332.5,416.5C 328.609,415.438 324.776,415.771 321,417.5C 319.989,416.944 319.156,416.278 318.5,415.5C 339.941,412.815 361.274,408.981 382.5,404C 387.319,401.949 392.319,400.282 397.5,399C 404.466,396.185 410.799,392.352 416.5,387.5C 417.646,388.145 418.646,388.978 419.5,390C 415.352,401.978 407.019,409.144 394.5,411.5 Z"/></g>
<g><path style="opacity:0.218" fill="#3979bb" d="M 295.5,416.5 C 293.508,418.83 290.841,420.164 287.5,420.5C 269.209,418.27 250.876,417.937 232.5,419.5C 219.04,418.717 205.707,417.717 192.5,416.5C 188.622,417.101 188.622,417.935 192.5,419C 202.096,421.075 211.763,422.741 221.5,424C 220.584,424.278 219.918,424.778 219.5,425.5C 205.963,423.968 192.63,421.135 179.5,417C 177.606,415.921 177.273,414.587 178.5,413C 217.272,417.277 256.272,418.444 295.5,416.5 Z"/></g>
<g><path style="opacity:0.762" fill="#276db5" d="M 239.5,420.5 C 251.34,419.175 263.34,419.175 275.5,420.5C 263.438,421.811 251.438,421.811 239.5,420.5 Z"/></g>
<g><path style="opacity:0.208" fill="#3576ba" d="M 394.5,411.5 C 393.192,412.232 391.858,413.066 390.5,414C 365.187,420.827 339.521,424.994 313.5,426.5C 311.708,425.691 309.708,425.191 307.5,425C 328.311,423.652 348.811,421.152 369,417.5C 370.658,417.325 371.991,416.658 373,415.5C 373.414,415.957 373.914,416.291 374.5,416.5C 380.332,414.959 385.998,412.959 391.5,410.5C 392.584,410.685 393.584,411.018 394.5,411.5 Z"/></g>
<g><path style="opacity:0.227" fill="#3878bb" d="M 298.5,426.5 C 283.153,427.78 267.82,427.78 252.5,426.5C 252.611,425.883 252.944,425.383 253.5,425C 255.333,424.833 257.167,424.667 259,424.5C 267.479,425.297 275.979,425.297 284.5,424.5C 288.5,424.667 292.5,424.833 296.5,425C 297.416,425.278 298.082,425.778 298.5,426.5 Z"/></g>
</svg>
