<?xml version="1.0" encoding="UTF-8"?>
<!DOCTYPE svg PUBLIC "-//W3C//DTD SVG 1.1//EN" "http://www.w3.org/Graphics/SVG/1.1/DTD/svg11.dtd">
<svg xmlns="http://www.w3.org/2000/svg" version="1.1" width="225px" height="225px" style="shape-rendering:geometricPrecision; text-rendering:geometricPrecision; image-rendering:optimizeQuality; fill-rule:evenodd; clip-rule:evenodd" xmlns:xlink="http://www.w3.org/1999/xlink">
<g><path style="opacity:1" fill="#de6c5c" d="M 162.5,47.5 C 128.833,47.5 95.1667,47.5 61.5,47.5C 64.6414,46.6787 67.9748,46.1787 71.5,46C 98.1667,45.3333 124.833,45.3333 151.5,46C 155.356,46.1773 159.023,46.6773 162.5,47.5 Z"/></g>
<g><path style="opacity:1" fill="#e16056" d="M 61.5,47.5 C 59.4855,48.9238 57.1522,49.5905 54.5,49.5C 56.5145,48.0762 58.8478,47.4095 61.5,47.5 Z"/></g>
<g><path style="opacity:1" fill="#fb0d05" d="M 61.5,47.5 C 95.1667,47.5 128.833,47.5 162.5,47.5C 162.833,47.5 163.167,47.5 163.5,47.5C 163.414,48.4959 163.748,49.3292 164.5,50C 168.114,50.9358 171.78,51.4358 175.5,51.5C 175.414,52.4959 175.748,53.3292 176.5,54C 178.813,54.662 181.146,55.162 183.5,55.5C 188.066,57.7305 192.066,60.7305 195.5,64.5C 196.092,68.0889 198.092,70.4222 201.5,71.5C 201.176,75.5365 202.842,78.2032 206.5,79.5C 208.245,81.0326 209.245,83.0326 209.5,85.5C 211.093,92.1211 212.593,98.7877 214,105.5C 214.499,110.489 214.666,115.489 214.5,120.5C 214.552,122.903 214.219,125.236 213.5,127.5C 211.72,128.99 211.054,130.99 211.5,133.5C 211.5,133.833 211.5,134.167 211.5,134.5C 209.467,136.163 207.634,138.163 206,140.5C 205.667,140.167 205.333,139.833 205,139.5C 204.667,141.833 204.333,144.167 204,146.5C 203.586,146.043 203.086,145.709 202.5,145.5C 201.534,147.396 201.201,149.396 201.5,151.5C 201.5,152.167 201.167,152.5 200.5,152.5C 198.801,152.34 197.134,152.506 195.5,153C 196.167,153.333 196.833,153.667 197.5,154C 196.062,154.219 194.729,154.719 193.5,155.5C 194.872,157.62 194.205,158.62 191.5,158.5C 191.5,159.5 191.5,160.5 191.5,161.5C 191.5,162.167 191.167,162.5 190.5,162.5C 184.213,165.417 177.879,168.417 171.5,171.5C 168.914,172.48 166.247,172.813 163.5,172.5C 163.5,173.5 163.5,174.5 163.5,175.5C 160.921,176.228 158.254,176.728 155.5,177C 126.167,177.667 96.8333,177.667 67.5,177C 65.0796,176.71 62.7463,176.21 60.5,175.5C 58.4855,174.076 56.1522,173.41 53.5,173.5C 50.0878,172.958 47.0878,171.625 44.5,169.5C 42.3209,164.906 38.6543,162.573 33.5,162.5C 32.9653,160.554 31.632,159.554 29.5,159.5C 29.5123,156.858 28.179,155.525 25.5,155.5C 23.9373,154.055 22.604,152.389 21.5,150.5C 21.3124,146.936 20.3124,143.603 18.5,140.5C 17.4231,139.295 16.0898,138.628 14.5,138.5C 14.5394,137.417 14.8728,136.417 15.5,135.5C 10.4855,122.033 9.15217,108.033 11.5,93.5C 11.5,93.1667 11.5,92.8333 11.5,92.5C 15.5642,87.0382 18.5642,81.0382 20.5,74.5C 21.0798,72.2512 22.4131,70.5846 24.5,69.5C 27.9511,68.2763 30.2844,65.943 31.5,62.5C 33.4546,63.3235 35.4546,63.4901 37.5,63C 36.2889,61.8869 36.2889,60.7202 37.5,59.5C 41.1721,57.8539 44.1721,55.5206 46.5,52.5C 48.7916,50.7329 51.4582,49.7329 54.5,49.5C 57.1522,49.5905 59.4855,48.9238 61.5,47.5 Z M 161.5,71.5 C 164.314,73.0697 167.314,74.4031 170.5,75.5C 171.262,77.2624 172.596,78.2624 174.5,78.5C 175.5,80.1667 176.833,81.5 178.5,82.5C 181.199,86.1902 183.865,89.8569 186.5,93.5C 186.433,94.9587 186.766,96.2921 187.5,97.5C 188.167,100.167 188.833,102.833 189.5,105.5C 189.653,111.869 189.32,118.203 188.5,124.5C 186.08,130.931 182.413,136.597 177.5,141.5C 175.142,143.529 172.808,145.529 170.5,147.5C 168.847,147.66 167.514,148.326 166.5,149.5C 161.785,151.077 157.118,152.41 152.5,153.5C 125.5,153.5 98.5,153.5 71.5,153.5C 68.6888,152.525 65.6888,151.858 62.5,151.5C 56.0695,149.08 50.4028,145.413 45.5,140.5C 43.4707,138.142 41.4707,135.808 39.5,133.5C 38.4031,130.314 37.0697,127.314 35.5,124.5C 35.0513,119.793 34.3847,115.126 33.5,110.5C 34.3155,105.79 35.3155,101.123 36.5,96.5C 37.8831,93.4058 39.5498,90.4058 41.5,87.5C 42.3382,87.1583 42.6716,86.4916 42.5,85.5C 44.5,84.1667 46.1667,82.5 47.5,80.5C 54.6157,74.2803 62.949,70.7803 72.5,70C 99.1667,69.3333 125.833,69.3333 152.5,70C 155.478,70.696 158.478,71.196 161.5,71.5 Z"/></g>
<g><path style="opacity:1" fill="#e85747" d="M 163.5,47.5 C 167.784,48.2613 171.784,49.5947 175.5,51.5C 171.78,51.4358 168.114,50.9358 164.5,50C 163.748,49.3292 163.414,48.4959 163.5,47.5 Z"/></g>
<g><path style="opacity:1" fill="#ea6255" d="M 175.5,51.5 C 178.485,52.3257 181.151,53.659 183.5,55.5C 181.146,55.162 178.813,54.662 176.5,54C 175.748,53.3292 175.414,52.4959 175.5,51.5 Z"/></g>
<g><path style="opacity:1" fill="#ea2f22" d="M 46.5,52.5 C 44.1721,55.5206 41.1721,57.8539 37.5,59.5C 36.2889,60.7202 36.2889,61.8869 37.5,63C 35.4546,63.4901 33.4546,63.3235 31.5,62.5C 35.6312,57.9295 40.6312,54.5961 46.5,52.5 Z"/></g>
<g><path style="opacity:1" fill="#e46050" d="M 195.5,64.5 C 197.471,66.8082 199.471,69.1415 201.5,71.5C 198.092,70.4222 196.092,68.0889 195.5,64.5 Z"/></g>
<g><path style="opacity:1" fill="#e24f41" d="M 31.5,62.5 C 30.2844,65.943 27.9511,68.2763 24.5,69.5C 25.8333,66.1667 28.1667,63.8333 31.5,62.5 Z"/></g>
<g><path style="opacity:0.956" fill="#e23a30" d="M 161.5,71.5 C 158.478,71.196 155.478,70.696 152.5,70C 125.833,69.3333 99.1667,69.3333 72.5,70C 62.949,70.7803 54.6157,74.2803 47.5,80.5C 47.3379,78.4727 47.5045,76.4727 48,74.5C 48.3333,74.8333 48.6667,75.1667 49,75.5C 54.166,73.2674 59.3327,71.1007 64.5,69C 95.8333,68.3333 127.167,68.3333 158.5,69C 160.119,69.2355 161.119,70.0689 161.5,71.5 Z"/></g>
<g><path style="opacity:1" fill="#e65647" d="M 170.5,75.5 C 172.632,75.5544 173.965,76.5544 174.5,78.5C 172.596,78.2624 171.262,77.2624 170.5,75.5 Z"/></g>
<g><path style="opacity:1" fill="#e63f32" d="M 201.5,71.5 C 203.95,73.6291 205.617,76.2957 206.5,79.5C 202.842,78.2032 201.176,75.5365 201.5,71.5 Z"/></g>
<g><path style="opacity:1" fill="#e24335" d="M 20.5,74.5 C 18.5642,81.0382 15.5642,87.0382 11.5,92.5C 13.4651,85.9031 16.4651,79.9031 20.5,74.5 Z"/></g>
<g><path style="opacity:1" fill="#ee4d3c" d="M 47.5,80.5 C 46.1667,82.5 44.5,84.1667 42.5,85.5C 42.5792,84.0695 42.2458,82.7362 41.5,81.5C 43.396,80.5344 45.396,80.2011 47.5,80.5 Z"/></g>
<g><path style="opacity:1" fill="#ec3f2d" d="M 178.5,82.5 C 181.179,82.5246 182.512,83.858 182.5,86.5C 184.144,86.2865 185.644,86.6198 187,87.5C 186.865,89.4247 186.698,91.4247 186.5,93.5C 183.865,89.8569 181.199,86.1902 178.5,82.5 Z"/></g>
<g><path style="opacity:1" fill="#eb5b4a" d="M 41.5,87.5 C 39.5498,90.4058 37.8831,93.4058 36.5,96.5C 36.5578,93.3356 37.2245,90.3356 38.5,87.5C 39.5,87.5 40.5,87.5 41.5,87.5 Z"/></g>
<g><path style="opacity:1" fill="#ea6052" d="M 209.5,85.5 C 215.171,96.6302 216.838,108.297 214.5,120.5C 214.666,115.489 214.499,110.489 214,105.5C 212.593,98.7877 211.093,92.1211 209.5,85.5 Z"/></g>
<g><path style="opacity:1" fill="#d94d3c" d="M 187.5,97.5 C 188.496,97.4142 189.329,97.7476 190,98.5C 191.594,104.621 191.761,110.621 190.5,116.5C 190.815,112.629 190.482,108.962 189.5,105.5C 188.833,102.833 188.167,100.167 187.5,97.5 Z"/></g>
<g><path style="opacity:1" fill="#e75a46" d="M 36.5,96.5 C 35.3155,101.123 34.3155,105.79 33.5,110.5C 34.3847,115.126 35.0513,119.793 35.5,124.5C 34.0337,123.653 33.2004,122.32 33,120.5C 32.3333,114.5 32.3333,108.5 33,102.5C 33.5864,99.9807 34.7531,97.9807 36.5,96.5 Z"/></g>
<g><path style="opacity:1" fill="#ec4a37" d="M 11.5,93.5 C 9.15217,108.033 10.4855,122.033 15.5,135.5C 14.8728,136.417 14.5394,137.417 14.5,138.5C 8.95385,127.208 7.12052,115.208 9,102.5C 9.40612,99.2578 10.2395,96.2578 11.5,93.5 Z"/></g>
<g><path style="opacity:0.996" fill="#f18b81" d="M 189.5,105.5 C 190.482,108.962 190.815,112.629 190.5,116.5C 190.706,119.495 190.04,122.162 188.5,124.5C 189.32,118.203 189.653,111.869 189.5,105.5 Z"/></g>
<g><path style="opacity:0.996" fill="#e67468" d="M 213.5,127.5 C 213.125,129.698 212.458,131.698 211.5,133.5C 211.054,130.99 211.72,128.99 213.5,127.5 Z"/></g>
<g><path style="opacity:1" fill="#e63f31" d="M 35.5,124.5 C 37.0697,127.314 38.4031,130.314 39.5,133.5C 38.5,133.5 37.5,133.5 36.5,133.5C 36.2962,130.482 35.9629,127.482 35.5,124.5 Z"/></g>
<g><path style="opacity:1" fill="#e73d2d" d="M 188.5,124.5 C 187.74,129.347 186.406,134.014 184.5,138.5C 182.005,139.199 179.672,140.199 177.5,141.5C 182.413,136.597 186.08,130.931 188.5,124.5 Z"/></g>
<g><path style="opacity:1" fill="#e34c3b" d="M 39.5,133.5 C 41.4707,135.808 43.4707,138.142 45.5,140.5C 41.4879,139.84 39.4879,137.506 39.5,133.5 Z"/></g>
<g><path style="opacity:1" fill="#ea4230" d="M 14.5,138.5 C 16.0898,138.628 17.4231,139.295 18.5,140.5C 20.3124,143.603 21.3124,146.936 21.5,150.5C 18.3768,147.024 16.0435,143.024 14.5,138.5 Z"/></g>
<g><path style="opacity:1" fill="#ed4f3d" d="M 211.5,134.5 C 209.426,140.993 206.092,146.66 201.5,151.5C 201.201,149.396 201.534,147.396 202.5,145.5C 203.086,145.709 203.586,146.043 204,146.5C 204.333,144.167 204.667,141.833 205,139.5C 205.333,139.833 205.667,140.167 206,140.5C 207.634,138.163 209.467,136.163 211.5,134.5 Z"/></g>
<g><path style="opacity:1" fill="#e44235" d="M 177.5,141.5 C 176.84,145.512 174.506,147.512 170.5,147.5C 172.808,145.529 175.142,143.529 177.5,141.5 Z"/></g>
<g><path style="opacity:1" fill="#e85542" d="M 45.5,140.5 C 50.4028,145.413 56.0695,149.08 62.5,151.5C 54.4664,151.366 48.7997,147.699 45.5,140.5 Z"/></g>
<g><path style="opacity:1" fill="#ec766f" d="M 166.5,149.5 C 162.573,152.927 157.906,154.26 152.5,153.5C 157.118,152.41 161.785,151.077 166.5,149.5 Z"/></g>
<g><path style="opacity:1" fill="#ec807b" d="M 62.5,151.5 C 65.6888,151.858 68.6888,152.525 71.5,153.5C 68.8127,153.664 66.146,153.497 63.5,153C 62.944,152.617 62.6107,152.117 62.5,151.5 Z"/></g>
<g><path style="opacity:1" fill="#ef533f" d="M 200.5,152.5 C 198.5,156.5 195.5,159.5 191.5,161.5C 191.5,160.5 191.5,159.5 191.5,158.5C 194.205,158.62 194.872,157.62 193.5,155.5C 194.729,154.719 196.062,154.219 197.5,154C 196.833,153.667 196.167,153.333 195.5,153C 197.134,152.506 198.801,152.34 200.5,152.5 Z"/></g>
<g><path style="opacity:1" fill="#dd5444" d="M 25.5,155.5 C 28.179,155.525 29.5123,156.858 29.5,159.5C 27.8333,158.5 26.5,157.167 25.5,155.5 Z"/></g>
<g><path style="opacity:1" fill="#e25f4f" d="M 29.5,159.5 C 31.632,159.554 32.9653,160.554 33.5,162.5C 31.5956,162.262 30.2623,161.262 29.5,159.5 Z"/></g>
<g><path style="opacity:1" fill="#e7382a" d="M 33.5,162.5 C 38.6543,162.573 42.3209,164.906 44.5,169.5C 40.0243,168.343 36.3577,166.01 33.5,162.5 Z"/></g>
<g><path style="opacity:1" fill="#ea5542" d="M 190.5,162.5 C 182.734,169.215 173.734,173.549 163.5,175.5C 163.5,174.5 163.5,173.5 163.5,172.5C 166.247,172.813 168.914,172.48 171.5,171.5C 177.879,168.417 184.213,165.417 190.5,162.5 Z"/></g>
<g><path style="opacity:1" fill="#ed7772" d="M 53.5,173.5 C 56.1522,173.41 58.4855,174.076 60.5,175.5C 57.8478,175.59 55.5145,174.924 53.5,173.5 Z"/></g>
</svg>
